<?xml version="1.0" encoding="utf-8"?>
<!-- Generator: Adobe Illustrator 22.1.0, SVG Export Plug-In . SVG Version: 6.00 Build 0)  -->
<svg version="1.1" id="Layer_1" xmlns="http://www.w3.org/2000/svg" xmlns:xlink="http://www.w3.org/1999/xlink" x="0px" y="0px"
	 viewBox="0 0 100.7 22.6" style="enable-background:new 0 0 100.7 22.6;" xml:space="preserve">
<style type="text/css">
	.st0{fill:#0068AD;}
	.st1{opacity:7.000000e-02;fill:#FFFFFF;enable-background:new    ;}
	.st2{opacity:0.29;fill:#010303;enable-background:new    ;}
	.st3{fill:#FFFFFF;}
	.st4{fill:#FFFFFF;stroke:#FFFFFF;stroke-width:0.25;stroke-miterlimit:10;}
</style>
<g>
	<path class="st0" d="M15.9,0C10.1,1.1,4.8,2.7,0.3,4.9C0.1,4.9,0,5.1,0,5.3v0.9v1v0.9v0.3v0.9v1v0.9v0.7v1.8v1.1v1.8
		c0,1.1,0.6,2.1,1.5,2.6l5.2,3c0.9,0.5,2.1,0.5,3,0l5.2-3c0.9-0.5,1.5-1.5,1.5-2.6v-3v-0.7l0,0v-3V7.5V6.6V4.5V3.6V3.2V0.4
		C16.5,0.2,16.2,0,15.9,0z"/>
	<path class="st1" d="M15.9,0c-2.6,0.5-5.2,1.1-7.7,1.9v20.6c0.5,0,1-0.1,1.5-0.4l5.2-3c0.9-0.5,1.5-1.5,1.5-2.6v-3v-0.6l0,0v-3V7.5
		V6.6V4.5V3.6V3.2V0.4C16.5,0.2,16.2,0,15.9,0z"/>
	<path class="st2" d="M12.9,3.2C8.9,3.7,5.2,4.7,2,6.1c-0.1,0-0.2,0.2-0.2,0.3V7v0.7v0.6V9c0,0,0,0,0-0.1c3.3-1.4,7.2-2.5,11.4-3
		l0,0l0,0V3.5C13.3,3.3,13.1,3.2,12.9,3.2z"/>
	<path class="st2" d="M8.9,8C6.4,8.5,4.1,9.2,2,10c-0.1,0.1-0.2,0.2-0.2,0.3v0.6v0.7v0.6v0.7c0,0,0,0,0-0.1c2.1-0.9,4.5-1.6,7-2.1
		L8.9,8L8.9,8z"/>
	<path class="st3" d="M13.4,2.4C9.2,3.2,5.3,4.5,2,6.1c-0.1,0-0.2,0.2-0.2,0.3V7v0.7v0.6V9c0,0,0,0,0-0.1c3.4-1.7,7.4-3,11.9-3.8
		l0,0l0,0V2.7C13.8,2.5,13.6,2.4,13.4,2.4z"/>
	<path class="st3" d="M9.4,7.3C6.7,8,4.2,8.9,2,10c-0.1,0.1-0.2,0.2-0.2,0.3v0.6v0.7v0.6v0.7c0,0,0,0,0-0.1c2.2-1.1,4.8-2,7.5-2.8
		L9.4,7.3L9.4,7.3z"/>
	<path class="st2" d="M4.6,13.3C3.7,13.5,2.8,13.7,2,14c-0.1,0-0.2,0.2-0.2,0.3v0.6v0.7v0.6v0.7c0,0,0,0,0-0.1
		c0.9-0.3,1.8-0.5,2.7-0.7L4.6,13.3L4.6,13.3z"/>
	<path class="st3" d="M5,12.6c-1,0.4-2,0.8-3,1.3c-0.1,0.1-0.2,0.2-0.2,0.3v0.7v0.7v0.6v0.7c0,0,0,0,0-0.1c1-0.5,2.1-1,3.2-1.4V12.6
		z"/>
</g>
<g>
	<path class="st3" d="M24.2,2.4c0,0,0.1-0.1,0.2-0.1h5.1c0.1,0,0.2,0,0.2,0.1c0,0,0.1,0.1,0.1,0.2V3c0,0.1,0,0.2-0.1,0.2
		c0,0-0.1,0.1-0.2,0.1h-4.3c-0.1,0-0.1,0-0.1,0.1v3.4c0,0.1,0,0.1,0.1,0.1h3.3c0.1,0,0.2,0,0.2,0.1c0,0,0.1,0.1,0.1,0.2v0.3
		c0,0.1,0,0.2-0.1,0.2c0,0-0.1,0.1-0.2,0.1h-3.3c-0.1,0-0.1,0-0.1,0.1v4c0,0.1,0,0.2-0.1,0.2c0,0-0.1,0.1-0.2,0.1h-0.4
		c-0.1,0-0.2,0-0.2-0.1c0,0-0.1-0.1-0.1-0.2V2.7C24.1,2.5,24.2,2.5,24.2,2.4z"/>
	<path class="st3" d="M31.8,2.4c0,0,0.1-0.1,0.2-0.1h0.4c0.1,0,0.2,0,0.2,0.1c0,0,0.1,0.1,0.1,0.2V12c0,0.1,0,0.2-0.1,0.2
		c0,0-0.1,0.1-0.2,0.1H32c-0.1,0-0.2,0-0.2-0.1c0,0-0.1-0.1-0.1-0.2V2.7C31.7,2.5,31.7,2.5,31.8,2.4z"/>
	<path class="st3" d="M35.4,2.4c0,0,0.1-0.1,0.2-0.1H36c0.1,0,0.2,0,0.2,0.1c0,0,0.1,0.1,0.1,0.2v8.6c0,0.1,0,0.1,0.1,0.1h4.4
		c0.1,0,0.2,0,0.2,0.1s0.1,0.1,0.1,0.2V12c0,0.1,0,0.2-0.1,0.2c0,0-0.1,0.1-0.2,0.1h-5.2c-0.1,0-0.2,0-0.2-0.1c0,0-0.1-0.1-0.1-0.2
		V2.7C35.3,2.5,35.3,2.5,35.4,2.4z"/>
	<path class="st3" d="M43,2.4c0,0,0.1-0.1,0.2-0.1h5.1c0.1,0,0.2,0,0.2,0.1c0,0,0.1,0.1,0.1,0.2V3c0,0.1,0,0.2-0.1,0.2
		c0,0-0.1,0.1-0.2,0.1H44c-0.1,0-0.1,0-0.1,0.1v3.3c0,0.1,0,0.1,0.1,0.1h3c0.1,0,0.2,0,0.2,0.1c0,0,0.1,0.1,0.1,0.2v0.3
		c0,0.1,0,0.2-0.1,0.2c0,0-0.1,0.1-0.2,0.1h-3c-0.1,0-0.1,0-0.1,0.1v3.4c0,0.1,0,0.1,0.1,0.1h4.3c0.1,0,0.2,0,0.2,0.1
		c0,0,0.1,0.1,0.1,0.2V12c0,0.1,0,0.2-0.1,0.2c0,0-0.1,0.1-0.2,0.1h-5.1c-0.1,0-0.2,0-0.2-0.1c0,0-0.1-0.1-0.1-0.2V2.7
		C43,2.5,43,2.5,43,2.4z"/>
	<path class="st3" d="M59,10.9V11l-0.1,0.1c-0.5,0.4-1.1,0.8-1.7,1c-0.6,0.2-1.3,0.3-2,0.3c-0.9,0-1.8-0.2-2.5-0.7
		c-0.8-0.4-1.4-1-1.8-1.8c-0.4-0.8-0.7-1.6-0.7-2.6s0.2-1.9,0.7-2.6c0.4-0.8,1.1-1.4,1.8-1.8c0.8-0.4,1.7-0.7,2.6-0.7
		c0.7,0,1.3,0.1,1.9,0.4c0.6,0.2,1.2,0.6,1.6,1c0.1,0,0.2,0.1,0.2,0.1c0,0.1,0,0.1-0.1,0.2l-0.4,0.6c-0.1,0.1-0.2,0.2-0.2,0.2
		c-0.1,0-0.1,0-0.2-0.1c-0.4-0.3-0.8-0.6-1.3-0.7c-0.5-0.2-1-0.3-1.5-0.3c-0.7,0-1.3,0.2-1.8,0.5c-0.6,0.3-1,0.8-1.3,1.3
		c-0.3,0.6-0.5,1.2-0.5,2c0,0.7,0.2,1.3,0.5,1.9c0.3,0.6,0.8,1,1.3,1.4s1.2,0.5,1.8,0.5c1.1,0,2-0.3,2.8-1c0.1-0.1,0.2-0.1,0.2-0.1
		h0.1l0.1,0.1l0.4,0.6C59,10.7,59,10.8,59,10.9z"/>
	<path class="st3" d="M60.7,2.4c0,0,0.1-0.1,0.2-0.1h0.8c0.1,0,0.2,0,0.2,0.1c0,0,0.1,0.1,0.1,0.2v8.1c0,0.1,0,0.1,0,0.1h0.1h4.2
		c0.1,0,0.2,0,0.2,0.1c0,0,0.1,0.1,0.1,0.2V12c0,0.1,0,0.2-0.1,0.2c0,0-0.1,0.1-0.2,0.1H61c-0.1,0-0.2,0-0.2-0.1
		c0,0-0.1-0.1-0.1-0.2V2.7C60.6,2.6,60.7,2.5,60.7,2.4z"/>
	<path class="st3" d="M67.9,4.7C68.4,4,69,3.3,69.8,2.9s1.7-0.7,2.6-0.7c1,0,1.8,0.2,2.6,0.7c0.8,0.4,1.4,1.1,1.8,1.8
		c0.4,0.8,0.7,1.6,0.7,2.6s-0.2,1.8-0.7,2.6c-0.4,0.8-1.1,1.4-1.8,1.8c-0.8,0.4-1.7,0.7-2.6,0.7c-1,0-1.8-0.2-2.6-0.7
		c-0.8-0.4-1.4-1-1.8-1.8s-0.7-1.6-0.7-2.6C67.3,6.4,67.5,5.5,67.9,4.7z M74.2,10.6c0.6-0.3,1-0.8,1.3-1.4S76,8,76,7.3
		s-0.2-1.4-0.5-1.9c-0.3-0.6-0.8-1-1.3-1.3c-0.6-0.3-1.2-0.5-1.8-0.5c-0.7,0-1.3,0.2-1.8,0.5c-0.6,0.3-1,0.8-1.3,1.4s-0.5,1.2-0.5,2
		c0,0.7,0.2,1.3,0.5,1.9s0.8,1,1.3,1.3c0.6,0.3,1.2,0.5,1.8,0.5S73.6,10.9,74.2,10.6z"/>
	<path class="st3" d="M79.4,2.4c0,0,0.1-0.1,0.2-0.1h0.8c0.1,0,0.2,0,0.3,0.1c0,0,0.1,0.1,0.1,0.2V8c0,1,0.2,1.7,0.7,2.3
		c0.5,0.5,1.1,0.8,2,0.8c0.6,0,1.1-0.1,1.5-0.4c0.4-0.2,0.7-0.6,0.9-1.1c0.2-0.5,0.3-1,0.3-1.6V2.7c0-0.1,0-0.2,0.1-0.2
		c0,0,0.1-0.1,0.2-0.1h0.8c0.1,0,0.2,0,0.3,0.1c0,0,0.1,0.1,0.1,0.2v5.4c0,1-0.2,1.8-0.5,2.4c-0.4,0.7-0.8,1.1-1.5,1.5
		c-0.6,0.3-1.3,0.5-2.2,0.5c-0.8,0-1.5-0.2-2.1-0.5s-1.1-0.8-1.4-1.4c-0.3-0.7-0.5-1.5-0.5-2.4V2.7C79.3,2.6,79.4,2.5,79.4,2.4z"/>
	<path class="st3" d="M97.3,4.7c-0.4-0.7-1-1.3-1.9-1.7c-0.8-0.4-1.8-0.6-2.9-0.6h-2.9c-0.1,0-0.2,0-0.2,0.1c0,0-0.1,0.1-0.1,0.2
		v0.1v0.3v0.3c0,0.1,0,0.2,0.1,0.2c0,0,0.1,0.1,0.2,0.1h0.3l0,0H92l0,0h0.4c0.8,0,1.5,0.1,2.1,0.4c0.6,0.3,1.1,0.7,1.4,1.2
		s0.5,1.2,0.5,1.9c0,0.8-0.2,1.4-0.5,2c-0.3,0.5-0.8,1-1.4,1.3s-1.3,0.4-2.2,0.4h-1.5l0,0h-1l0,0h-0.2c-0.1,0-0.2,0-0.2,0.1
		c0,0-0.1,0.1-0.1,0.2v0.4v0.2V12c0,0.1,0,0.2,0.1,0.2c0,0,0.1,0.1,0.2,0.1h2.7c1.1,0,2.1-0.2,3-0.6c0.8-0.4,1.5-1,1.9-1.8
		s0.7-1.7,0.7-2.7S97.7,5.4,97.3,4.7z"/>
</g>
<g>
	<path class="st4" d="M23.8,15.3c0-0.1,0.1-0.1,0.1-0.1h1.6c0.9,0,1.5,0.6,1.5,1.3c0,0.6-0.4,1-0.7,1.2c0.4,0.2,0.9,0.5,0.9,1.2
		c0,0.8-0.6,1.4-1.6,1.4H24c-0.1,0-0.1-0.1-0.1-0.1V15.3z M25.7,19.7c0.5,0,0.9-0.4,0.9-0.9c0-0.5-0.5-0.9-1-0.9h-1.2v1.8H25.7z
		 M25.5,17.4c0.6,0,0.9-0.4,0.9-0.9c0-0.5-0.3-0.9-0.9-0.9h-1.2v1.8H25.5z"/>
	<path class="st4" d="M29.7,17.8L28,15.4c-0.1-0.1,0-0.2,0.1-0.2h0.3c0.1,0,0.1,0,0.1,0.1l1.5,2l1.5-2c0,0,0.1-0.1,0.1-0.1h0.3
		c0.1,0,0.2,0.1,0.1,0.2l-1.8,2.4v2.3c0,0.1-0.1,0.1-0.1,0.1h-0.3c-0.1,0-0.1-0.1-0.1-0.1V17.8z"/>
	<path class="st4" d="M37.3,15.1c0.7,0,1.3,0.3,1.7,0.7c0.1,0.1,0.1,0.1,0,0.2l-0.2,0.2c-0.1,0.1-0.1,0.1-0.2,0
		c-0.4-0.3-0.9-0.5-1.4-0.5c-1.1,0-2,1-2,2.1c0,1.1,0.9,2.1,2,2.1c0.6,0,1-0.3,1.4-0.5c0.1-0.1,0.1-0.1,0.2,0l0.2,0.2
		c0.1,0,0,0.1,0,0.2c-0.5,0.5-1.1,0.7-1.8,0.7c-1.4,0-2.6-1.1-2.6-2.6S35.9,15.1,37.3,15.1z"/>
	<path class="st4" d="M42.8,15.1c1.4,0,2.6,1.2,2.6,2.6s-1.2,2.6-2.6,2.6c-1.4,0-2.6-1.1-2.6-2.6S41.3,15.1,42.8,15.1z M42.8,19.8
		c1.1,0,2.1-0.9,2.1-2.1c0-1.1-0.9-2.1-2.1-2.1c-1.1,0-2.1,1-2.1,2.1C40.7,18.9,41.6,19.8,42.8,19.8z"/>
	<path class="st4" d="M46.8,15.3c0-0.1,0.1-0.1,0.1-0.1h1.6c1.4,0,2.5,1.1,2.5,2.5c0,1.4-1.1,2.5-2.5,2.5H47c-0.1,0-0.1-0.1-0.1-0.1
		V15.3z M48.5,19.7c1.2,0,2-0.8,2-2c0-1.2-0.9-2-2-2h-1.1v4.1H48.5z"/>
	<path class="st4" d="M52.6,15.3c0-0.1,0.1-0.1,0.1-0.1h2.8c0.1,0,0.1,0.1,0.1,0.1v0.2c0,0.1-0.1,0.1-0.1,0.1h-2.4v1.8h2.1
		c0.1,0,0.1,0.1,0.1,0.1v0.2c0,0.1-0.1,0.1-0.1,0.1h-2.1v1.8h2.4c0.1,0,0.1,0.1,0.1,0.1v0.2c0,0.1-0.1,0.1-0.1,0.1h-2.8
		c-0.1,0-0.1-0.1-0.1-0.1V15.3z"/>
	<path class="st4" d="M57.2,15.3c0-0.1,0.1-0.1,0.1-0.1h0.3c0.1,0,0.1,0.1,0.1,0.1v4.4h2.1c0.1,0,0.1,0.1,0.1,0.1v0.2
		c0,0.1-0.1,0.1-0.1,0.1h-2.5c-0.1,0-0.1-0.1-0.1-0.1V15.3z"/>
	<path class="st4" d="M60.7,20l2.2-4.9c0,0,0.1-0.1,0.1-0.1h0.1c0.1,0,0.1,0,0.1,0.1l2.2,4.9c0,0.1,0,0.2-0.1,0.2H65
		c-0.1,0-0.1,0-0.1-0.1L64.3,19h-2.6l-0.5,1.2c0,0-0.1,0.1-0.1,0.1h-0.3C60.7,20.2,60.6,20.1,60.7,20z M64.1,18.5
		c-0.4-0.8-0.7-1.6-1.1-2.4H63l-1.1,2.4H64.1z"/>
	<path class="st4" d="M67,15.6h-1.3c-0.1,0-0.1-0.1-0.1-0.1v-0.2c0-0.1,0.1-0.1,0.1-0.1h3.1c0.1,0,0.1,0.1,0.1,0.1v0.2
		c0,0.1-0.1,0.1-0.1,0.1h-1.3v4.4c0,0.1-0.1,0.1-0.1,0.1h-0.3c-0.1,0-0.1-0.1-0.1-0.1V15.6z"/>
	<path class="st4" d="M70.1,15.3c0-0.1,0.1-0.1,0.1-0.1h0.3c0.1,0,0.1,0.1,0.1,0.1v2.1h2.9v-2.1c0-0.1,0.1-0.1,0.1-0.1H74
		c0.1,0,0.1,0.1,0.1,0.1v4.8c0,0.1-0.1,0.1-0.1,0.1h-0.3c-0.1,0-0.1-0.1-0.1-0.1v-2.2h-2.9v2.2c0,0.1-0.1,0.1-0.1,0.1h-0.3
		c-0.1,0-0.1-0.1-0.1-0.1V15.3z"/>
	<path class="st4" d="M75.9,15.3c0-0.1,0.1-0.1,0.1-0.1h2.8c0.1,0,0.1,0.1,0.1,0.1v0.2c0,0.1-0.1,0.1-0.1,0.1h-2.4v1.8h2.1
		c0.1,0,0.1,0.1,0.1,0.1v0.2c0,0.1-0.1,0.1-0.1,0.1h-2.1v1.8h2.4c0.1,0,0.1,0.1,0.1,0.1v0.2c0,0.1-0.1,0.1-0.1,0.1h-2.8
		c-0.1,0-0.1-0.1-0.1-0.1V15.3z"/>
</g>
</svg>
